<svg xmlns="http://www.w3.org/2000/svg" viewBox="0 0 800 520" role="img" aria-label="白衣服洗完變成粉紅色">
  <defs>
    <linearGradient id="sky" x1="0" y1="0" x2="0" y2="1">
      <stop offset="0" stop-color="#FFE7C8"/>
      <stop offset="1" stop-color="#FFF6EA"/>
    </linearGradient>
    <linearGradient id="floor" x1="0" y1="0" x2="0" y2="1">
      <stop offset="0" stop-color="#F3D2A8"/>
      <stop offset="1" stop-color="#E8C08A"/>
    </linearGradient>
  </defs>
  <rect width="800" height="520" fill="url(#sky)"/>
  <rect y="360" width="800" height="160" fill="url(#floor)"/>
  <ellipse cx="400" cy="368" rx="340" ry="18" fill="#E2B57A" opacity=".45"/>
  <!-- window -->
  <rect x="560" y="40" width="180" height="130" rx="16" fill="#F7F3E8" stroke="#D9B48A" stroke-width="8"/>
  <line x1="650" y1="40" x2="650" y2="170" stroke="#D9B48A" stroke-width="6"/>
  <line x1="560" y1="105" x2="740" y2="105" stroke="#D9B48A" stroke-width="6"/>
  <circle cx="700" cy="70" r="16" fill="#F6C86A"/>
  <!-- plant -->
  <rect x="720" y="300" width="28" height="36" rx="4" fill="#C97A5A"/>
  <ellipse cx="734" cy="278" rx="18" ry="28" fill="#7CB07A"/>
  <ellipse cx="718" cy="286" rx="14" ry="22" fill="#8FBF86"/>
  <!-- washer -->
  <rect x="70" y="170" width="210" height="230" rx="28" fill="#F4F7FA" stroke="#C9D3DC" stroke-width="6"/>
  <rect x="88" y="188" width="174" height="28" rx="10" fill="#E4EBF1"/>
  <circle cx="112" cy="202" r="6" fill="#F08A7A"/>
  <circle cx="132" cy="202" r="6" fill="#E8B84A"/>
  <circle cx="175" cy="280" r="68" fill="#D7E3EC" stroke="#A9B8C4" stroke-width="10"/>
  <circle cx="175" cy="280" r="48" fill="#9BB8C8"/>
  <path d="M150 268 q25 28 50 0" fill="none" stroke="#F4A4B8" stroke-width="10" stroke-linecap="round"/>
  <path d="M146 292 q30 18 56-6" fill="none" stroke="#E87A8A" stroke-width="8" stroke-linecap="round"/>
  <!-- pink clothes pile -->
  <ellipse cx="340" cy="355" rx="110" ry="28" fill="#D9A06A" opacity=".35"/>
  <path d="M250 300 q40-50 90-10 q30 20 70-8 q20 40-10 70 q-70 20-130 4 q-30-16-20-56z" fill="#F6B3C4"/>
  <path d="M280 250 q36-40 78 4 q10 30-16 46 q-50 8-70-14 q-10-16 8-36z" fill="#F08AA0"/>
  <rect x="300" y="268" width="86" height="64" rx="12" fill="#F7C3D0" transform="rotate(-12 343 300)"/>
  <circle cx="318" cy="278" r="7" fill="#F4F0EA"/>
  <circle cx="338" cy="274" r="7" fill="#F4F0EA"/>
  <!-- red shirt peeking -->
  <path d="M390 310 q30-36 62 2 v48 q-34 14-64 0z" fill="#E23B3B"/>
  <rect x="408" y="300" width="18" height="10" rx="3" fill="#F6E27A"/>
  <!-- kid detective -->
  <ellipse cx="600" cy="400" rx="46" ry="14" fill="#D9A06A" opacity=".4"/>
  <rect x="568" y="318" width="64" height="78" rx="22" fill="#4E7FD6"/>
  <rect x="548" y="328" width="22" height="48" rx="11" fill="#FFD2A8"/>
  <rect x="630" y="328" width="22" height="48" rx="11" fill="#FFD2A8"/>
  <circle cx="600" cy="278" r="38" fill="#FFD8B0"/>
  <path d="M566 268 q34-40 68 0 q-8 18-34 18 q-26 0-34-18z" fill="#3A2A24"/>
  <circle cx="588" cy="280" r="4" fill="#3A2A24"/>
  <circle cx="614" cy="280" r="4" fill="#3A2A24"/>
  <path d="M590 296 q10 10 22 0" fill="none" stroke="#3A2A24" stroke-width="3" stroke-linecap="round"/>
  <circle cx="566" cy="288" r="7" fill="#F4A090"/>
  <circle cx="634" cy="288" r="7" fill="#F4A090"/>
  <rect x="574" y="392" width="22" height="36" rx="8" fill="#3D5A80"/>
  <rect x="604" y="392" width="22" height="36" rx="8" fill="#3D5A80"/>
  <!-- magnifying glass -->
  <circle cx="668" cy="318" r="22" fill="none" stroke="#3A2A24" stroke-width="7"/>
  <circle cx="668" cy="318" r="14" fill="#F7F3E8" opacity=".55"/>
  <line x1="684" y1="334" x2="708" y2="360" stroke="#3A2A24" stroke-width="8" stroke-linecap="round"/>
</svg>
